:SAMPLES-PER-SECOND 30
:FULLY-SPECIFIED
:DEGREES
79
root  67.2176 40.4175 -4.0157 -10.5735 -80.5731 7.39024
RightUpLeg  2.32264 -10.8112 -8.58408
RightLeg  5.5763 -8.85157 4.07758
RightFoot  -1.74385 0.00676186 -0.107137
RightToes  -1.16417e-010 0 -3.6325e-017
Spine  2.05008 -1.22791 1.08946
Spine1  9.47365 -0.945905 -0.569542
HEad  -3.54174 -1.17444 0.729686
LeftShoulder1  9.74984 -14.6909 -46.7539
LeftArm  -18.3874 -10.0588 -17.8903
LeftForeArm  43.6338 -36.9175 -5.81721
LeftHand  -0.244104 0.0205437 5.32207
RightShoulder  6.4476 10.9333 38.5891
RightArm  -4.32648 2.81799 32.1209
RightForeArm  6.52162 26.6357 5.91776
RightHand  -1.30494 1.25498 -22.7257
LeftUpLeg  1.11959 5.19613 4.25944
LeftLeg  3.77233 8.1635 -2.66571
LeftFoot  -1.66392 0.294833 -3.36469
LeftToes  -2.09216e-011 1.96776e-011 -5.83545e-012
80
root  67.1282 40.4182 -4.02883 -10.8761 -81.5803 7.7851
RightUpLeg  2.15608 -10.5482 -8.29359
RightLeg  5.57505 -8.13524 3.95217
RightFoot  -1.81195 0.00745614 -0.123557
RightToes  -1.16417e-010 0 -3.6325e-017
Spine  1.78166 -0.931438 1.19564
Spine1  9.65803 -0.63376 -0.588914
HEad  -3.71212 -0.691162 0.623543
LeftShoulder1  9.98697 -14.7496 -47.7598
LeftArm  -12.8304 -1.91939 -17.3342
LeftForeArm  37.2066 -28.5668 -4.13244
LeftHand  -0.244104 0.0205437 5.32207
RightShoulder  6.63294 10.961 39.7293
RightArm  -8.17984 -1.48564 31.3055
RightForeArm  7.4193 11.7154 5.47068
RightHand  -0.819784 -0.589208 -19.7503
LeftUpLeg  1.34084 5.45661 4.51556
LeftLeg  3.76463 8.84264 -2.76337
LeftFoot  -1.96816 0.283426 -3.31337
LeftToes  -2.09216e-011 1.96776e-011 -5.83545e-012
81
root  67.0523 40.4216 -4.01839 -11.4546 -82.5197 8.58633
RightUpLeg  1.85727 -10.3763 -8.11619
RightLeg  5.57303 -7.40673 3.88484
RightFoot  -1.85868 0.00736431 -0.137973
RightToes  -1.16417e-010 0 -3.6325e-017
Spine  1.6781 -0.614667 1.50611
Spine1  10.0527 -0.257442 -0.762224
HEad  -4.59817 -0.374265 0.386105
LeftShoulder1  9.9896 -14.5736 -48.2428
LeftArm  -6.35556 5.56217 -17.8469
LeftForeArm  30.1776 -20.4049 -3.57463
LeftHand  -0.244104 0.0205437 5.32207
RightShoulder  6.82415 11.1248 40.484
RightArm  -14.8062 -7.11271 30.4204
RightForeArm  8.6854 0.880887 4.31811
RightHand  -0.423292 -2.72041 -18.2238
LeftUpLeg  1.40677 5.60192 4.63326
LeftLeg  3.73034 9.59982 -2.8335
LeftFoot  -2.22286 0.281483 -3.36344
LeftToes  -2.09216e-011 1.96776e-011 -5.83545e-012
82
root  66.9867 40.428 -3.9909 -11.6655 -83.0095 9.07912
RightUpLeg  1.646 -10.3099 -8.05301
RightLeg  5.3964 -7.0313 3.90955
RightFoot  -1.7933 0.00594773 -0.139989
RightToes  -1.16417e-010 0 -3.6325e-017
Spine  1.77293 -0.504198 1.6433
Spine1  10.6211 -0.138134 -0.76879
HEad  -5.76077 0.030559 0.494145
LeftShoulder1  9.80917 -14.2226 -48.3098
LeftArm  -5.1947 12.8971 -19.0092
LeftForeArm  30.6219 -13.7786 -5.26117
LeftHand  -0.244104 0.0205437 5.32207
RightShoulder  6.78676 11.06 40.4362
RightArm  -17.6314 -14.7986 30.4236
RightForeArm  6.22645 -1.97057 2.73637
RightHand  -0.304496 -3.50808 -18.2295
LeftUpLeg  1.30841 5.61903 4.63453
LeftLeg  3.71179 10.0804 -2.84373
LeftFoot  -2.41509 0.286623 -3.48255
LeftToes  -2.09216e-011 1.96776e-011 -5.83545e-012
83
root  66.9118 40.4378 -3.94932 -11.3581 -83.2414 8.99625
RightUpLeg  1.62947 -10.2458 -8.01644
RightLeg  5.06892 -6.88787 3.9488
RightFoot  -1.63335 0.00031372 -0.0826589
RightToes  -1.16417e-010 0 -3.6325e-017
Spine  1.98496 -0.634997 1.4094
Spine1  10.9605 -0.359269 -0.488184
HEad  -6.81824 0.658236 0.887198
LeftShoulder1  9.63412 -13.8719 -48.406
LeftArm  -6.25821 20.8779 -20.6423
LeftForeArm  33.6633 -9.4518 -5.84275
LeftHand  -0.244104 0.0205437 5.32207
RightShoulder  6.49061 10.6826 39.6314
RightArm  -18.0008 -23.5925 30.8815
RightForeArm  4.42063 1.11565 2.84423
RightHand  -0.41908 -2.76349 -18.2274
LeftUpLeg  1.27231 5.59628 4.63693
LeftLeg  3.63588 10.3494 -2.86614
LeftFoot  -2.57121 0.291194 -3.5727
LeftToes  -2.09216e-011 1.96776e-011 -5.83545e-012
